<?xml version="1.0"?>
<svg fill="#0644CC" xmlns="http://www.w3.org/2000/svg" version="1.1" id="Layer_1" x="0px" y="0px" viewBox="0 0 508.37 127.18" style="enable-background:new 0 0 508.37 127.18;" xml:space="preserve" width="352" height="124" preserveAspectRatio="xMidYMid meet">

<g>
&#x9;<g>
&#x9;&#x9;<path class="st0" d="M154.55,99.69v-6.01c-1.93,2.14-4.25,3.85-6.94,5.13c-2.69,1.28-5.97,1.92-9.84,1.92    c-2.62,0-5.09-0.36-7.4-1.09c-2.31-0.72-4.33-1.81-6.06-3.26c-1.73-1.45-3.09-3.23-4.09-5.33c-1-2.1-1.5-4.54-1.5-7.3v-0.21    c0-3.04,0.55-5.66,1.66-7.87c1.1-2.21,2.64-4.04,4.61-5.49c1.97-1.45,4.31-2.54,7.04-3.26c2.73-0.72,5.75-1.09,9.06-1.09    c2.83,0,5.3,0.21,7.4,0.62c2.1,0.41,4.16,0.97,6.16,1.66v-0.93c0-3.31-1-5.83-3-7.56c-2-1.72-4.97-2.59-8.9-2.59    c-3.04,0-5.71,0.26-8.02,0.78c-2.31,0.52-4.75,1.26-7.3,2.23l-3.93-12.01c3.04-1.31,6.21-2.38,9.53-3.21s7.32-1.24,12.01-1.24    c8.63,0,14.91,2.11,18.85,6.32c3.94,4.21,5.9,10.08,5.9,17.6v32.2H154.55z M154.86,77.32c-1.38-0.62-2.92-1.12-4.61-1.5    c-1.69-0.38-3.5-0.57-5.44-0.57c-3.38,0-6.04,0.66-7.97,1.97c-1.93,1.31-2.9,3.21-2.9,5.7v0.21c0,2.14,0.79,3.8,2.38,4.97    c1.59,1.17,3.66,1.76,6.21,1.76c3.73,0,6.71-0.9,8.96-2.69c2.24-1.79,3.37-4.14,3.37-7.04V77.32z"></path>
&#x9;&#x9;<path class="st0" d="M215.95,59.61c-5.25,0-9.37,1.59-12.37,4.76c-3,3.18-4.5,8.11-4.5,14.81v20.5h-15.74v-55.5h15.74v11.18    c1.59-3.8,3.76-6.83,6.52-9.11c2.76-2.28,6.49-3.31,11.18-3.11v16.46H215.95z"></path>
&#x9;&#x9;<path class="st0" d="M295.58,99.69V68.8c0-3.72-0.79-6.53-2.38-8.42c-1.59-1.89-3.87-2.84-6.83-2.84c-2.97,0-5.3,0.95-6.99,2.84    c-1.69,1.89-2.54,4.7-2.54,8.42v30.88H261.1V68.8c0-3.72-0.79-6.53-2.38-8.42c-1.59-1.89-3.87-2.84-6.83-2.84    c-2.97,0-5.3,0.95-6.99,2.84c-1.69,1.89-2.54,4.7-2.54,8.42v30.88h-15.74v-55.5h15.74v7.93c0.9-1.18,1.88-2.31,2.95-3.39    c1.07-1.08,2.26-2.03,3.57-2.87c1.31-0.83,2.78-1.5,4.4-1.98c1.62-0.49,3.43-0.73,5.44-0.73c3.66,0,6.82,0.77,9.47,2.29    c2.66,1.53,4.71,3.72,6.16,6.57c2.42-2.92,5.11-5.13,8.08-6.62c2.97-1.49,6.35-2.24,10.15-2.24c5.87,0,10.46,1.73,13.77,5.18    c3.31,3.45,4.97,8.53,4.97,15.22v36.14H295.58z"></path>
&#x9;&#x9;<path class="st0" d="M357.5,99.69v-6.01c-1.93,2.14-4.25,3.85-6.94,5.13s-5.97,1.92-9.84,1.92c-2.62,0-5.09-0.36-7.4-1.09    c-2.31-0.72-4.33-1.81-6.06-3.26c-1.73-1.45-3.09-3.23-4.09-5.33c-1-2.1-1.5-4.54-1.5-7.3v-0.21c0-3.04,0.55-5.66,1.66-7.87    c1.1-2.21,2.64-4.04,4.61-5.49c1.97-1.45,4.31-2.54,7.04-3.26c2.73-0.72,5.75-1.09,9.06-1.09c2.83,0,5.3,0.21,7.4,0.62    c2.1,0.41,4.16,0.97,6.16,1.66v-0.93c0-3.31-1-5.83-3-7.56c-2-1.72-4.97-2.59-8.91-2.59c-3.04,0-5.71,0.26-8.02,0.78    c-2.31,0.52-4.75,1.26-7.3,2.23l-3.93-12.01c3.04-1.31,6.21-2.38,9.53-3.21s7.32-1.24,12.01-1.24c8.63,0,14.91,2.11,18.85,6.32    c3.93,4.21,5.9,10.08,5.9,17.6v32.2H357.5z M357.81,77.32c-1.38-0.62-2.92-1.12-4.61-1.5c-1.69-0.38-3.5-0.57-5.44-0.57    c-3.38,0-6.04,0.66-7.97,1.97c-1.93,1.31-2.9,3.21-2.9,5.7v0.21c0,2.14,0.79,3.8,2.38,4.97c1.59,1.17,3.66,1.76,6.21,1.76    c3.73,0,6.71-0.9,8.96-2.69c2.24-1.79,3.37-4.14,3.37-7.04V77.32z"></path>
&#x9;&#x9;<path class="st0" d="M420.46,99.69l-11.18-17.29l-11.18,17.29h-16.46l19.47-28.16l-18.74-27.34h16.88l10.35,16.15l10.46-16.15    h16.46l-18.74,27.03l19.57,28.47H420.46z"></path>
&#x9;&#x9;<path class="st0" d="M480.93,99.69l-11.18-17.29l-11.18,17.29H442.1l19.47-28.16l-18.74-27.34h16.88l10.35,16.15l10.46-16.15    h16.46l-18.74,27.03l19.57,28.47H480.93z"></path>
&#x9;</g>
&#x9;<path class="st0" d="M56.68,151.88"></path>
&#x9;<path class="st0" d="M51.97,159.06"></path>
&#x9;<path class="st0" d="M28.49,37.32c0,0,48.22-50.47,94.88-9.87l-16.82,14.13c0,0-9.42-14.36-37.01-11.89   C69.53,29.7,51.59,23.42,28.49,37.32z"></path>
&#x9;<path class="st0" d="M23.21,43.91c0,0,16.37-14.58,43.07-7.18C53.42,40.31,44.1,50.28,42.69,61.86c-1.16,9.53,3.69,17.83,5.1,19.41   c2.66,2.98,9.55,7.29,18.91,8.63c17.93,2.56,30.95-9.48,32.77-11.22l14.36,13.01c0,0-17.34,18.82-50.22,18.38   c0,0-37.46-2.19-44.58-28.88C19.02,81.19,13.75,66.94,23.21,43.91z"></path>
</g>
<path class="st0" d="M-9.26,47.88"></path>
</svg>